<svg xmlns="http://www.w3.org/2000/svg" xmlns:xlink="http://www.w3.org/1999/xlink" width="1080" zoomAndPan="magnify" viewBox="0 0 810 809.999993" height="1080" preserveAspectRatio="xMidYMid meet" version="1.0"><defs><clipPath id="f29fa1edcb"><path d="M 51.566406 51.566406 L 758.433594 51.566406 L 758.433594 758.433594 L 51.566406 758.433594 Z M 51.566406 51.566406 " clip-rule="nonzero"/></clipPath><clipPath id="24c1765e4b"><path d="M 758.429688 405 C 758.429688 600.195312 600.195312 758.429688 405 758.429688 C 209.804688 758.429688 51.570312 600.195312 51.570312 405 C 51.570312 209.804688 209.804688 51.570312 405 51.570312 C 600.195312 51.570312 758.429688 209.804688 758.429688 405 " clip-rule="nonzero"/></clipPath><clipPath id="c05535ba27"><path d="M 0.566406 0.566406 L 707.433594 0.566406 L 707.433594 707.433594 L 0.566406 707.433594 Z M 0.566406 0.566406 " clip-rule="nonzero"/></clipPath><clipPath id="d32575d0c6"><path d="M 707.429688 354 C 707.429688 549.195312 549.195312 707.429688 354 707.429688 C 158.804688 707.429688 0.570312 549.195312 0.570312 354 C 0.570312 158.804688 158.804688 0.570312 354 0.570312 C 549.195312 0.570312 707.429688 158.804688 707.429688 354 " clip-rule="nonzero"/></clipPath><clipPath id="eb6a6e6e61"><rect x="0" width="708" y="0" height="708"/></clipPath><clipPath id="9e567e96de"><path d="M 79 79 L 731 79 L 731 731 L 79 731 Z M 79 79 " clip-rule="nonzero"/></clipPath><clipPath id="1c94626a55"><path d="M 730.789062 405 C 730.789062 584.929688 584.929688 730.789062 405 730.789062 L 405 729.664062 L 405 730.789062 C 225.066406 730.789062 79.207031 584.929688 79.207031 405 L 80.332031 405 L 79.207031 405 C 79.207031 225.066406 225.066406 79.207031 405 79.207031 L 405 80.332031 L 405 79.207031 C 584.929688 79.207031 730.789062 225.066406 730.789062 405 L 729.664062 405 L 730.789062 405 M 728.539062 405 C 728.539062 226.3125 583.6875 81.457031 405 81.457031 C 226.3125 81.457031 81.457031 226.3125 81.457031 405 C 81.457031 583.6875 226.3125 728.539062 405 728.539062 C 583.6875 728.539062 728.539062 583.6875 728.539062 405 Z M 728.539062 405 " clip-rule="nonzero"/></clipPath><clipPath id="345972e173"><path d="M 0.199219 0.199219 L 651.800781 0.199219 L 651.800781 651.800781 L 0.199219 651.800781 Z M 0.199219 0.199219 " clip-rule="nonzero"/></clipPath><clipPath id="ad84891752"><path d="M 651.789062 326 C 651.789062 505.929688 505.929688 651.789062 326 651.789062 L 326 650.664062 L 326 651.789062 C 146.066406 651.789062 0.207031 505.929688 0.207031 326 L 1.332031 326 L 0.207031 326 C 0.207031 146.066406 146.066406 0.207031 326 0.207031 L 326 1.332031 L 326 0.207031 C 505.929688 0.207031 651.789062 146.066406 651.789062 326 L 650.664062 326 L 651.789062 326 M 649.539062 326 C 649.539062 147.3125 504.6875 2.457031 326 2.457031 C 147.3125 2.457031 2.457031 147.3125 2.457031 326 C 2.457031 504.6875 147.3125 649.539062 326 649.539062 C 504.6875 649.539062 649.539062 504.6875 649.539062 326 Z M 649.539062 326 " clip-rule="nonzero"/></clipPath><clipPath id="ffc50e89eb"><rect x="0" width="652" y="0" height="652"/></clipPath><clipPath id="7668e5ddaf"><path d="M 275 224 L 481 224 L 481 645.996094 L 275 645.996094 Z M 275 224 " clip-rule="nonzero"/></clipPath><clipPath id="106e596eeb"><path d="M 313.925781 414.945312 C 304.84375 416.824219 298.476562 422.25 289.296875 423.328125 C 291.644531 419.539062 293.285156 416.714844 295.09375 414 C 301.46875 404.382812 307.804688 394.730469 314.351562 385.234375 C 317.40625 380.804688 318.859375 376.039062 319.0625 370.738281 C 319.6875 354.554688 317.976562 338.609375 314.667969 322.296875 C 307.558594 317.9375 300.335938 313.5 293.105469 309.074219 C 290.257812 307.332031 287.519531 305.332031 284.488281 303.964844 C 278.046875 301.070312 275.992188 295.492188 275.382812 289.265625 C 274.625 281.488281 277.0625 274.242188 280.574219 267.425781 C 281.480469 265.664062 283.429688 264.441406 284.8125 263.070312 C 288.394531 264 290.039062 266.660156 291.996094 268.933594 C 294.777344 272.152344 297.277344 275.667969 300.386719 278.511719 C 302.554688 280.484375 305.4375 281.878906 308.226562 282.882812 C 310.019531 283.527344 312.238281 283.003906 314.652344 283.003906 C 314.824219 280.46875 315.171875 278.382812 315.066406 276.328125 C 314.796875 270.859375 314.210938 265.414062 313.964844 259.949219 C 313.507812 249.816406 314.839844 239.910156 318.742188 230.496094 C 321.875 222.929688 327.140625 222.074219 332.519531 228.269531 C 336.75 233.136719 339.574219 238.917969 341.480469 245.039062 C 344.277344 254.015625 346.746094 263.097656 349.3125 272.144531 C 350.136719 275.046875 350.820312 277.984375 351.664062 281.300781 C 353.953125 281.527344 356.015625 282.019531 358.027344 281.886719 C 367.414062 281.25 376.699219 279.972656 385.972656 278.097656 C 407.804688 273.6875 428.847656 266.839844 449.257812 258.125 C 459.839844 253.609375 469.925781 247.933594 480.394531 242.707031 C 481.761719 243.808594 480.214844 244.453125 479.519531 245.203125 C 462.507812 263.375 442.582031 277.527344 420.320312 288.546875 C 403.410156 296.914062 385.949219 303.898438 368.039062 309.792969 C 364.046875 311.105469 360.214844 312.882812 356.660156 314.300781 C 355.429688 321.839844 355.136719 349.355469 356.046875 364.265625 C 358.28125 367.550781 362.039062 369.101562 365.339844 371.160156 C 373.582031 376.304688 382.054688 381.074219 390.289062 386.226562 C 397.804688 390.929688 404.113281 397.117188 410.300781 403.386719 C 412.648438 405.761719 414.945312 408.1875 417.132812 410.707031 C 417.847656 411.53125 418.152344 412.707031 419.03125 414.507812 C 415.828125 414.140625 413.449219 413.960938 411.101562 413.578125 C 399.710938 411.742188 388.355469 409.648438 376.925781 408.066406 C 371.535156 407.316406 366.011719 407.277344 360.554688 407.332031 C 352.085938 407.414062 350.324219 409.070312 349.519531 417.214844 C 348.921875 423.269531 348.515625 429.335938 348.132812 435.402344 C 346.273438 464.832031 343.117188 494.007812 336.425781 522.867188 C 329.21875 553.964844 321.15625 584.789062 311.804688 615.289062 C 309.042969 624.285156 305.773438 633.117188 302.660156 642 C 302.195312 643.324219 301.296875 644.496094 300.050781 645.5625 C 300.261719 632.8125 302.292969 620.359375 303.664062 607.84375 C 305.0625 595.160156 305.960938 582.425781 307.085938 569.722656 C 308.242188 556.699219 309.554688 543.6875 310.527344 530.652344 C 311.480469 517.917969 312.253906 505.175781 312.800781 492.417969 C 313.347656 479.660156 313.566406 466.886719 313.867188 454.125 C 314.164062 441.425781 314.632812 428.714844 313.917969 414.9375 " clip-rule="nonzero"/></clipPath><clipPath id="722c9c8b99"><path d="M 0 0 L 206 0 L 206 421.601562 L 0 421.601562 Z M 0 0 " clip-rule="nonzero"/></clipPath><clipPath id="5029f6a413"><path d="M 38.925781 190.945312 C 29.84375 192.824219 23.476562 198.25 14.296875 199.328125 C 16.644531 195.539062 18.285156 192.714844 20.09375 190 C 26.46875 180.382812 32.804688 170.730469 39.351562 161.234375 C 42.40625 156.804688 43.859375 152.039062 44.0625 146.738281 C 44.6875 130.554688 42.976562 114.609375 39.667969 98.296875 C 32.558594 93.9375 25.335938 89.5 18.105469 85.074219 C 15.257812 83.332031 12.519531 81.332031 9.488281 79.964844 C 3.046875 77.070312 0.992188 71.492188 0.382812 65.265625 C -0.375 57.488281 2.0625 50.242188 5.574219 43.425781 C 6.480469 41.664062 8.429688 40.441406 9.8125 39.070312 C 13.394531 40 15.039062 42.660156 16.996094 44.933594 C 19.777344 48.152344 22.277344 51.667969 25.386719 54.511719 C 27.554688 56.484375 30.4375 57.878906 33.226562 58.882812 C 35.019531 59.527344 37.238281 59.003906 39.652344 59.003906 C 39.824219 56.46875 40.171875 54.382812 40.066406 52.328125 C 39.796875 46.859375 39.210938 41.414062 38.964844 35.949219 C 38.507812 25.816406 39.839844 15.910156 43.742188 6.496094 C 46.875 -1.070312 52.140625 -1.925781 57.519531 4.269531 C 61.75 9.136719 64.574219 14.917969 66.480469 21.039062 C 69.277344 30.015625 71.746094 39.097656 74.3125 48.144531 C 75.136719 51.046875 75.820312 53.984375 76.664062 57.300781 C 78.953125 57.527344 81.015625 58.019531 83.027344 57.886719 C 92.414062 57.25 101.699219 55.972656 110.972656 54.097656 C 132.804688 49.6875 153.847656 42.839844 174.257812 34.125 C 184.839844 29.609375 194.925781 23.933594 205.394531 18.707031 C 206.761719 19.808594 205.214844 20.453125 204.519531 21.203125 C 187.507812 39.375 167.582031 53.527344 145.320312 64.546875 C 128.410156 72.914062 110.949219 79.898438 93.039062 85.792969 C 89.046875 87.105469 85.214844 88.882812 81.660156 90.300781 C 80.429688 97.839844 80.136719 125.355469 81.046875 140.265625 C 83.28125 143.550781 87.039062 145.101562 90.339844 147.160156 C 98.582031 152.304688 107.054688 157.074219 115.289062 162.226562 C 122.804688 166.929688 129.113281 173.117188 135.300781 179.386719 C 137.648438 181.761719 139.945312 184.1875 142.132812 186.707031 C 142.847656 187.53125 143.152344 188.707031 144.03125 190.507812 C 140.828125 190.140625 138.449219 189.960938 136.101562 189.578125 C 124.710938 187.742188 113.355469 185.648438 101.925781 184.066406 C 96.535156 183.316406 91.011719 183.277344 85.554688 183.332031 C 77.085938 183.414062 75.324219 185.070312 74.519531 193.214844 C 73.921875 199.269531 73.515625 205.335938 73.132812 211.402344 C 71.273438 240.832031 68.117188 270.007812 61.425781 298.867188 C 54.21875 329.964844 46.15625 360.789062 36.804688 391.289062 C 34.042969 400.285156 30.773438 409.117188 27.660156 418 C 27.195312 419.324219 26.296875 420.496094 25.050781 421.5625 C 25.261719 408.8125 27.292969 396.359375 28.664062 383.84375 C 30.0625 371.160156 30.960938 358.425781 32.085938 345.722656 C 33.242188 332.699219 34.554688 319.6875 35.527344 306.652344 C 36.480469 293.917969 37.253906 281.175781 37.800781 268.417969 C 38.347656 255.660156 38.566406 242.886719 38.867188 230.125 C 39.164062 217.425781 39.632812 204.714844 38.917969 190.9375 " clip-rule="nonzero"/></clipPath><clipPath id="dc04c2dfc4"><rect x="0" width="206" y="0" height="422"/></clipPath><clipPath id="d133ab6616"><path d="M 414 343 L 535 343 L 535 661.734375 L 414 661.734375 Z M 414 343 " clip-rule="nonzero"/></clipPath><clipPath id="2c6ecf4c0d"><path d="M 471.597656 589.566406 C 475.519531 590.269531 478.476562 591.058594 481.476562 591.304688 C 493.347656 592.273438 505.234375 593.074219 517.125 593.9375 C 517.886719 594 518.660156 594.011719 519.425781 594.050781 C 534.570312 594.824219 535.984375 600.71875 534.082031 613.949219 C 533.75 616.222656 533 618.5625 531.921875 620.578125 C 525.132812 633.238281 518.21875 645.824219 511.289062 658.402344 C 510.75 659.390625 509.804688 660.148438 508.664062 661.445312 C 504.289062 660.195312 500.21875 658.25 496.289062 655.933594 C 477.914062 645.125 458.285156 641.765625 437.398438 645.605469 C 430.257812 646.917969 423.074219 647.992188 415.175781 649.304688 C 414.808594 646.886719 414.019531 645.007812 414.34375 643.339844 C 415.910156 635.324219 417.335938 627.238281 419.601562 619.414062 C 430.558594 581.5625 438.089844 542.9375 443.472656 503.960938 C 447.417969 475.402344 449.113281 446.554688 448.738281 417.644531 C 448.609375 407.8125 446.082031 399.246094 438.230469 392.824219 C 436.144531 391.125 434.554688 388.796875 432.457031 387.117188 C 425.960938 381.914062 424.574219 374.9375 425.527344 367.175781 C 427.132812 354.042969 440.195312 342.523438 452.617188 343.09375 C 460.519531 343.460938 466.289062 347.992188 471.375 353.390625 C 479.308594 361.8125 483.515625 372.140625 485.445312 383.5625 C 487.46875 395.570312 487.882812 407.636719 486.824219 419.707031 C 484.132812 450.382812 481.347656 481.039062 478.28125 511.679688 C 476.652344 527.953125 474.132812 544.132812 472.429688 560.398438 C 471.464844 569.636719 470.878906 578.960938 471.613281 589.566406 " clip-rule="nonzero"/></clipPath><clipPath id="c92f9ba7e1"><path d="M 0 0 L 121 0 L 121 318.679688 L 0 318.679688 Z M 0 0 " clip-rule="nonzero"/></clipPath><clipPath id="e628d00fbf"><path d="M 57.597656 246.566406 C 61.519531 247.269531 64.476562 248.058594 67.476562 248.304688 C 79.347656 249.273438 91.234375 250.074219 103.125 250.9375 C 103.886719 251 104.660156 251.011719 105.425781 251.050781 C 120.570312 251.824219 121.984375 257.71875 120.082031 270.949219 C 119.75 273.222656 119 275.5625 117.921875 277.578125 C 111.132812 290.238281 104.21875 302.824219 97.289062 315.402344 C 96.75 316.390625 95.804688 317.148438 94.664062 318.445312 C 90.289062 317.195312 86.21875 315.25 82.289062 312.933594 C 63.914062 302.125 44.285156 298.765625 23.398438 302.605469 C 16.257812 303.917969 9.074219 304.992188 1.175781 306.304688 C 0.808594 303.886719 0.0195312 302.007812 0.34375 300.339844 C 1.910156 292.324219 3.335938 284.238281 5.601562 276.414062 C 16.558594 238.5625 24.089844 199.9375 29.472656 160.960938 C 33.417969 132.402344 35.113281 103.554688 34.738281 74.644531 C 34.609375 64.8125 32.082031 56.246094 24.230469 49.824219 C 22.144531 48.125 20.554688 45.796875 18.457031 44.117188 C 11.960938 38.914062 10.574219 31.9375 11.527344 24.175781 C 13.132812 11.042969 26.195312 -0.476562 38.617188 0.09375 C 46.519531 0.460938 52.289062 4.992188 57.375 10.390625 C 65.308594 18.8125 69.515625 29.140625 71.445312 40.5625 C 73.46875 52.570312 73.882812 64.636719 72.824219 76.707031 C 70.132812 107.382812 67.347656 138.039062 64.28125 168.679688 C 62.652344 184.953125 60.132812 201.132812 58.429688 217.398438 C 57.464844 226.636719 56.878906 235.960938 57.613281 246.566406 " clip-rule="nonzero"/></clipPath><clipPath id="1f6c86b75f"><rect x="0" width="121" y="0" height="319"/></clipPath><clipPath id="22787c387e"><path d="M 286.1875 158.007812 L 319.921875 158.007812 L 319.921875 209.730469 L 286.1875 209.730469 Z M 286.1875 158.007812 " clip-rule="nonzero"/></clipPath><clipPath id="3b34d0f0a0"><path d="M 318.875 209.40625 C 316.511719 209.070312 315.539062 209.144531 314.765625 208.789062 C 302.421875 203.152344 293.128906 194.445312 287.878906 181.746094 C 285.035156 174.867188 286.296875 168.644531 291.164062 163.136719 C 295.933594 157.738281 302.578125 157.078125 308.121094 161.789062 C 310.363281 163.695312 312.351562 166.234375 313.617188 168.890625 C 319.707031 181.609375 320.113281 195.082031 318.875 209.414062 " clip-rule="nonzero"/></clipPath><clipPath id="c541ce7a15"><path d="M 0.1875 0.0078125 L 33.921875 0.0078125 L 33.921875 51.519531 L 0.1875 51.519531 Z M 0.1875 0.0078125 " clip-rule="nonzero"/></clipPath><clipPath id="b9583abac3"><path d="M 32.875 51.40625 C 30.511719 51.070312 29.539062 51.144531 28.765625 50.789062 C 16.421875 45.152344 7.128906 36.445312 1.878906 23.746094 C -0.964844 16.867188 0.296875 10.644531 5.164062 5.136719 C 9.933594 -0.261719 16.578125 -0.921875 22.121094 3.789062 C 24.363281 5.695312 26.351562 8.234375 27.617188 10.890625 C 33.707031 23.609375 34.113281 37.082031 32.875 51.414062 " clip-rule="nonzero"/></clipPath><clipPath id="ef6000c983"><rect x="0" width="34" y="0" height="52"/></clipPath></defs><g clip-path="url(#f29fa1edcb)"><g clip-path="url(#24c1765e4b)"><g transform="matrix(1, 0, 0, 1, 51, 51)"><g clip-path="url(#eb6a6e6e61)"><g clip-path="url(#c05535ba27)"><g clip-path="url(#d32575d0c6)"><rect x="-229.2" width="1166.4" fill="#231f20" height="1166.39999" y="-229.199998" fill-opacity="1"/></g></g></g></g></g></g><g clip-path="url(#9e567e96de)"><g clip-path="url(#1c94626a55)"><g transform="matrix(1, 0, 0, 1, 79, 79)"><g clip-path="url(#ffc50e89eb)"><g clip-path="url(#345972e173)"><g clip-path="url(#ad84891752)"><rect x="-257.2" width="1166.4" fill="#fdf2f6" height="1166.39999" y="-257.199998" fill-opacity="1"/></g></g></g></g></g></g><g clip-path="url(#7668e5ddaf)"><g clip-path="url(#106e596eeb)"><g transform="matrix(1, 0, 0, 1, 275, 224)"><g clip-path="url(#dc04c2dfc4)"><g clip-path="url(#722c9c8b99)"><g clip-path="url(#5029f6a413)"><rect x="-453.2" width="1166.4" fill="#ffffff" height="1166.39999" y="-402.199998" fill-opacity="1"/></g></g></g></g></g></g><g clip-path="url(#d133ab6616)"><g clip-path="url(#2c6ecf4c0d)"><g transform="matrix(1, 0, 0, 1, 414, 343)"><g clip-path="url(#1f6c86b75f)"><g clip-path="url(#c92f9ba7e1)"><g clip-path="url(#e628d00fbf)"><rect x="-592.2" width="1166.4" fill="#ffffff" height="1166.39999" y="-521.199998" fill-opacity="1"/></g></g></g></g></g></g><g clip-path="url(#22787c387e)"><g clip-path="url(#3b34d0f0a0)"><g transform="matrix(1, 0, 0, 1, 286, 158)"><g clip-path="url(#ef6000c983)"><g clip-path="url(#c541ce7a15)"><g clip-path="url(#b9583abac3)"><rect x="-464.2" width="1166.4" fill="#ffffff" height="1166.39999" y="-336.199998" fill-opacity="1"/></g></g></g></g></g></g></svg>